<svg xmlns="http://www.w3.org/2000/svg" style="display: none;"><symbol viewBox="0 5.2 70 39.6" id="icon-arrow-down"><title>arrow-down</title> <path d="M0.9,10.9l31.6,32.8c0,0,0,0,0,0c0,0,0,0,0,0c0,0,0,0,0,0c0,0,0,0,0.1,0.1c0,0,0,0,0.1,0c0,0,0.1,0,0.1,0.1c0,0,0,0,0.1,0
	c0,0,0.1,0,0.1,0.1c0,0,0,0,0.1,0c0,0,0.1,0,0.1,0.1c0,0,0,0,0.1,0c0,0,0,0,0.1,0c0,0,0,0,0.1,0c0,0,0,0,0.1,0c0,0,0.1,0,0.1,0
	c0,0,0,0,0.1,0c0,0,0.1,0,0.1,0c0,0,0,0,0.1,0c0,0,0.1,0,0.1,0c0,0,0,0,0.1,0c0,0,0.1,0,0.1,0c0,0,0,0,0.1,0c0,0,0.1,0,0.1,0
	c0,0,0,0,0.1,0c0,0,0.1,0,0.1,0c0,0,0,0,0.1,0c0,0,0.1,0,0.1,0c0,0,0,0,0.1,0c0,0,0.1,0,0.1,0c0,0,0,0,0.1,0c0,0,0.1,0,0.1,0
	c0,0,0,0,0.1,0c0,0,0.1,0,0.1,0c0,0,0,0,0.1,0c0,0,0.1,0,0.1,0c0,0,0,0,0.1,0c0,0,0.1,0,0.1,0c0,0,0.1,0,0.1,0c0,0,0.1,0,0.1,0
	c0,0,0.1,0,0.1,0c0,0,0.1,0,0.1,0c0,0,0.1,0,0.1,0c0,0,0,0,0.1,0c0,0,0.1,0,0.1,0c0,0,0,0,0.1,0c0,0,0.1,0,0.1,0c0,0,0,0,0.1,0
	c0,0,0.1,0,0.1,0c0,0,0,0,0.1,0c0,0,0.1,0,0.1,0c0,0,0,0,0.1,0c0,0,0,0,0.1,0c0,0,0.1,0,0.1,0c0,0,0,0,0.1,0c0,0,0.1,0,0.1,0
	c0,0,0,0,0.1,0c0,0,0.1,0,0.1,0c0,0,0,0,0.1,0c0,0,0.1,0,0.1-0.1c0,0,0,0,0.1,0c0,0,0.1,0,0.1-0.1c0,0,0,0,0.1,0c0,0,0.1,0,0.1-0.1
	c0,0,0,0,0.1,0c0,0,0,0,0.1-0.1c0,0,0,0,0,0c0,0,0,0,0,0c0,0,0,0,0,0l31.6-32.8c1.3-1.3,1.3-3.5-0.1-4.8c-0.7-0.6-1.5-0.9-2.3-0.9
	c-0.9,0-1.8,0.3-2.4,1L35,36.5L5.8,6.2c-0.7-0.7-1.5-1-2.4-1C2.5,5.2,1.7,5.5,1,6.2C-0.3,7.5-0.3,9.6,0.9,10.9z"/> </symbol><symbol viewBox="0 0 31 22" id="icon-menu"><title>menu</title><desc>Created with Sketch.</desc> <!-- Generator: Sketch 46.2 (44496) - http://www.bohemiancoding.com/sketch -->    <g id="menu-Assets" stroke="none" stroke-width="1" fill="none" fill-rule="evenodd"> <g id="menu-Group" transform="translate(0.195177, 0.604611)" fill="#1F1F1F"> <polygon id="menu-Shape" points="0 0 30 0 30 3 0 3"/> <polygon id="menu-Shape" points="0 9 30 9 30 12 0 12"/> <polygon id="menu-Shape" points="0 18 30 18 30 21 0 21"/> </g> </g> </symbol></svg>