<?xml version="1.0" encoding="utf-8"?><svg width="48" height="48" viewBox="0 0 48 48" xmlns="http://www.w3.org/2000/svg" xmlns:xlink="http://www.w3.org/1999/xlink"><svg version="1.2" preserveAspectRatio="none" viewBox="0 0 24 24" class="ang-element" fill="#bbc1c7" style="width:32px;height:32px;transform:rotate(0deg) translate(751px,172px) rotate(0deg)" width="24" height="24" id="check"><path xmlns:default="http://www.w3.org/2000/svg" d="M9 16.2L4.8 12l-1.4 1.4L9 19 21 7l-1.4-1.4L9 16.2z"/></svg><svg version="1.2" preserveAspectRatio="none" viewBox="0 0 24 24" class="bng-element" fill="#b4b9c3" style="width:32px;height:32px;transform:rotate(0deg) translate(391px,890px) rotate(0deg)" width="24" height="24" id="connect" x="24"><path xmlns:default="http://www.w3.org/2000/svg" d="M7 7h10v3l4-4-4-4v3H5v6h2V7zm10 10H7v-3l-4 4 4 4v-3h12v-6h-2v4z"/></svg><svg version="1.2" preserveAspectRatio="none" viewBox="0 0 24 24" class="cng-element" fill="#b4b9c3" style="width:16px;height:16px;transform:rotate(0deg) translate(172px,130px) rotate(0deg)" width="24" height="24" id="dashboard" y="24"><path xmlns:default="http://www.w3.org/2000/svg" d="M3 13h8V3H3v10zm0 8h8v-6H3v6zm10 0h8V11h-8v10zm0-18v6h8V3h-8z"/></svg></svg>